<svg xmlns="http://www.w3.org/2000/svg" xmlns:xlink="http://www.w3.org/1999/xlink" zoomAndPan="magnify" preserveAspectRatio="xMidYMid meet" version="1.0" viewBox="2.3 105.02 364.62 165"><defs><g/><clipPath id="97370df2c6"><path d="M 5.296875 108.015625 L 164.296875 108.015625 L 164.296875 267.015625 L 5.296875 267.015625 Z M 5.296875 108.015625 " clip-rule="nonzero"/></clipPath><clipPath id="28eccbce2f"><path d="M 5.296875 108.015625 L 164.296875 108.015625 L 164.296875 267.015625 L 5.296875 267.015625 Z M 5.296875 108.015625 " clip-rule="nonzero"/></clipPath><clipPath id="270de38e25"><path d="M 84.796875 108.015625 C 40.890625 108.015625 5.296875 143.609375 5.296875 187.515625 C 5.296875 231.421875 40.890625 267.015625 84.796875 267.015625 C 128.703125 267.015625 164.296875 231.421875 164.296875 187.515625 C 164.296875 143.609375 128.703125 108.015625 84.796875 108.015625 " clip-rule="nonzero"/></clipPath></defs><g fill="#8c52ff" fill-opacity="1"><g transform="translate(164.263823, 178.852356)"><g><path d="M 14.632812 0.675781 C 22.464844 0.675781 27.105469 -3.015625 27.105469 -9.230469 C 27.105469 -14.453125 23.726562 -17.515625 16.074219 -19.222656 C 12.019531 -20.125 10.535156 -21.117188 10.535156 -22.738281 C 10.535156 -24.265625 11.886719 -25.210938 14.003906 -25.210938 C 16.523438 -25.210938 17.964844 -23.90625 17.964844 -21.519531 L 26.519531 -21.519531 C 26.519531 -28.003906 21.566406 -32.191406 13.820312 -32.191406 C 6.394531 -32.191406 1.800781 -28.5 1.800781 -22.554688 C 1.800781 -17.242188 5.269531 -13.957031 12.382812 -12.605469 C 16.207031 -11.839844 18.054688 -10.671875 18.054688 -8.871094 C 18.054688 -7.292969 16.703125 -6.394531 14.496094 -6.394531 C 11.886719 -6.394531 10.355469 -7.789062 10.355469 -10.21875 L 1.574219 -10.21875 C 1.574219 -3.421875 6.4375 0.675781 14.632812 0.675781 Z M 14.632812 0.675781 "/></g></g></g><g fill="#8c52ff" fill-opacity="1"><g transform="translate(193.026336, 178.852356)"><g><path d="M 15.128906 0 L 19.945312 0 L 19.945312 -7.292969 L 17.46875 -7.292969 C 14.949219 -7.292969 13.777344 -8.417969 13.777344 -10.894531 L 13.777344 -17.019531 L 19.628906 -17.019531 L 19.628906 -23.816406 L 13.777344 -23.816406 L 13.777344 -30.074219 L 7.070312 -30.074219 L 6.617188 -26.96875 C 6.257812 -24.492188 5.582031 -23.816406 2.882812 -23.816406 L 0.71875 -23.816406 L 0.71875 -17.019531 L 5.132812 -17.019531 L 5.132812 -9.230469 C 5.132812 -3.195312 8.597656 0 15.128906 0 Z M 15.128906 0 "/></g></g></g><g fill="#8c52ff" fill-opacity="1"><g transform="translate(214.721998, 178.852356)"><g><path d="M 10.941406 0.539062 C 14.363281 0.539062 17.242188 -0.585938 19.269531 -2.609375 L 20.214844 0 L 26.429688 0 L 26.429688 -13.867188 C 26.429688 -20.664062 22.152344 -24.492188 14.496094 -24.492188 C 7.832031 -24.492188 3.828125 -21.476562 3.105469 -15.984375 L 11.210938 -15.984375 C 11.4375 -17.378906 12.785156 -18.324219 14.542969 -18.324219 C 16.476562 -18.324219 18.007812 -17.199219 18.007812 -15.621094 L 18.007812 -14.273438 L 9.996094 -14.273438 C 5.085938 -14.273438 1.9375 -11.34375 1.9375 -6.976562 C 1.9375 -2.339844 5.449219 0.539062 10.941406 0.539062 Z M 10.398438 -7.382812 C 10.398438 -8.734375 11.570312 -9.542969 13.417969 -9.542969 L 18.097656 -9.542969 C 18.097656 -6.933594 16.117188 -5.175781 13.507812 -5.175781 C 11.660156 -5.175781 10.398438 -6.03125 10.398438 -7.382812 Z M 10.398438 -7.382812 "/></g></g></g><g fill="#8c52ff" fill-opacity="1"><g transform="translate(243.709572, 178.852356)"><g><path d="M 3.015625 0 L 11.660156 0 L 11.660156 -12.832031 C 11.660156 -15.710938 13.148438 -17.332031 15.53125 -17.332031 C 17.828125 -17.332031 19.179688 -15.847656 19.179688 -13.054688 L 19.179688 0 L 27.824219 0 L 27.824219 -13.957031 C 27.824219 -20.394531 23.996094 -24.492188 17.875 -24.492188 C 14.675781 -24.492188 11.886719 -23.367188 10.128906 -21.386719 L 9.230469 -23.816406 L 3.015625 -23.816406 Z M 3.015625 0 "/></g></g></g><g fill="#8c52ff" fill-opacity="1"><g transform="translate(274.092513, 178.852356)"><g><path d="M 13.550781 0.675781 C 16.929688 0.675781 19.765625 -0.449219 21.882812 -2.386719 L 22.738281 0 L 28.949219 0 L 28.949219 -33.316406 L 20.304688 -33.316406 L 20.304688 -22.601562 C 18.414062 -23.816406 16.117188 -24.492188 13.550781 -24.492188 C 6.394531 -24.492188 1.394531 -19.316406 1.394531 -11.929688 C 1.394531 -4.457031 6.394531 0.675781 13.550781 0.675781 Z M 9.859375 -11.929688 C 9.859375 -15.082031 12.066406 -17.332031 15.261719 -17.332031 C 18.414062 -17.332031 20.621094 -15.082031 20.621094 -11.929688 C 20.621094 -8.734375 18.414062 -6.484375 15.261719 -6.484375 C 12.066406 -6.484375 9.859375 -8.734375 9.859375 -11.929688 Z M 9.859375 -11.929688 "/></g></g></g><g fill="#8c52ff" fill-opacity="1"><g transform="translate(306.050858, 178.852356)"><g><path d="M 12.472656 0.675781 C 15.667969 0.675781 18.414062 -0.449219 20.171875 -2.429688 L 21.070312 0 L 27.238281 0 L 27.238281 -23.816406 L 18.59375 -23.816406 L 18.59375 -11.03125 C 18.59375 -8.105469 17.152344 -6.484375 14.8125 -6.484375 C 12.5625 -6.484375 11.210938 -7.96875 11.210938 -10.761719 L 11.210938 -23.816406 L 2.566406 -23.816406 L 2.566406 -9.859375 C 2.566406 -3.421875 6.394531 0.675781 12.472656 0.675781 Z M 12.472656 0.675781 "/></g></g></g><g fill="#8c52ff" fill-opacity="1"><g transform="translate(336.343768, 178.852356)"><g><path d="M 18.371094 0.675781 C 25.574219 0.675781 30.570312 -4.457031 30.570312 -11.929688 C 30.570312 -19.316406 25.574219 -24.492188 18.371094 -24.492188 C 15.039062 -24.492188 12.199219 -23.367188 10.128906 -21.429688 L 9.230469 -23.816406 L 3.015625 -23.816406 L 3.015625 9.003906 L 11.660156 9.003906 L 11.660156 -1.171875 C 13.507812 0 15.804688 0.675781 18.371094 0.675781 Z M 11.34375 -11.929688 C 11.34375 -15.082031 13.507812 -17.332031 16.703125 -17.332031 C 19.898438 -17.332031 22.0625 -15.082031 22.0625 -11.929688 C 22.0625 -8.734375 19.898438 -6.484375 16.703125 -6.484375 C 13.507812 -6.484375 11.34375 -8.734375 11.34375 -11.929688 Z M 11.34375 -11.929688 "/></g></g></g><g fill="#8c52ff" fill-opacity="1"><g transform="translate(164.263823, 226.852353)"><g><path d="M 3.328125 0 L 16.695312 0 C 26.863281 0 33.613281 -6.253906 33.613281 -15.75 C 33.613281 -25.199219 26.863281 -31.5 16.695312 -31.5 L 3.328125 -31.5 Z M 12.421875 -8.144531 L 12.421875 -23.355469 L 16.425781 -23.355469 C 21.238281 -23.355469 24.34375 -20.386719 24.34375 -15.75 C 24.34375 -11.113281 21.238281 -8.144531 16.425781 -8.144531 Z M 12.421875 -8.144531 "/></g></g></g><g fill="#8c52ff" fill-opacity="1"><g transform="translate(199.408786, 226.852353)"><g><path d="M 10.933594 0.539062 C 14.355469 0.539062 17.234375 -0.585938 19.261719 -2.609375 L 20.203125 0 L 26.414062 0 L 26.414062 -13.859375 C 26.414062 -20.65625 22.140625 -24.480469 14.488281 -24.480469 C 7.828125 -24.480469 3.824219 -21.464844 3.105469 -15.976562 L 11.203125 -15.976562 C 11.429688 -17.371094 12.78125 -18.316406 14.535156 -18.316406 C 16.46875 -18.316406 18 -17.191406 18 -15.613281 L 18 -14.265625 L 9.988281 -14.265625 C 5.085938 -14.265625 1.933594 -11.339844 1.933594 -6.976562 C 1.933594 -2.339844 5.445312 0.539062 10.933594 0.539062 Z M 10.394531 -7.378906 C 10.394531 -8.730469 11.566406 -9.539062 13.410156 -9.539062 L 18.089844 -9.539062 C 18.089844 -6.929688 16.109375 -5.175781 13.5 -5.175781 C 11.65625 -5.175781 10.394531 -6.03125 10.394531 -7.378906 Z M 10.394531 -7.378906 "/></g></g></g><g fill="#8c52ff" fill-opacity="1"><g transform="translate(228.388761, 226.852353)"><g><path d="M 3.015625 0 L 11.65625 0 L 11.65625 -23.804688 L 3.015625 -23.804688 Z M 2.160156 -31.949219 C 2.160156 -28.980469 4.320312 -26.910156 7.335938 -26.910156 C 10.351562 -26.910156 12.511719 -28.980469 12.511719 -31.949219 C 12.511719 -34.921875 10.351562 -36.945312 7.335938 -36.945312 C 4.320312 -36.945312 2.160156 -34.921875 2.160156 -31.949219 Z M 2.160156 -31.949219 "/></g></g></g><g fill="#8c52ff" fill-opacity="1"><g transform="translate(243.058747, 226.852353)"><g><path d="M 3.015625 0 L 11.65625 0 L 11.65625 -33.300781 L 3.015625 -33.300781 Z M 3.015625 0 "/></g></g></g><g fill="#8c52ff" fill-opacity="1"><g transform="translate(257.728732, 226.852353)"><g><path d="M 3.554688 9 L 6.976562 9 C 13.230469 9 15.613281 7.46875 17.683594 2.296875 L 28.214844 -23.804688 L 18.945312 -23.804688 L 16.558594 -16.738281 L 14.714844 -11.203125 L 12.511719 -16.738281 L 9.765625 -23.804688 L 0.226562 -23.804688 L 10.574219 -0.808594 C 9.898438 1.125 8.910156 1.753906 6.480469 1.753906 L 3.554688 1.753906 Z M 3.554688 9 "/></g></g></g><g clip-path="url(#97370df2c6)"><path fill="#ffde59" d="M 84.796875 108.015625 C 40.890625 108.015625 5.296875 143.609375 5.296875 187.515625 C 5.296875 231.421875 40.890625 267.015625 84.796875 267.015625 C 128.703125 267.015625 164.296875 231.421875 164.296875 187.515625 C 164.296875 143.609375 128.703125 108.015625 84.796875 108.015625 " fill-opacity="1" fill-rule="nonzero"/></g><g clip-path="url(#28eccbce2f)"><g clip-path="url(#270de38e25)"><path stroke-linecap="butt" transform="matrix(0.750166, 0, 0, 0.750166, 5.296195, 108.016171)" fill="none" stroke-linejoin="miter" d="M 105.977473 -0.000728248 C 47.448748 -0.000728248 0.000906103 47.447113 0.000906103 105.975838 C 0.000906103 164.504563 47.448748 211.952405 105.977473 211.952405 C 164.506198 211.952405 211.954039 164.504563 211.954039 105.975838 C 211.954039 47.447113 164.506198 -0.000728248 105.977473 -0.000728248 " stroke="#ffde59" stroke-width="6" stroke-opacity="1" stroke-miterlimit="4"/></g></g><g fill="#8c52ff" fill-opacity="1"><g transform="translate(22.710515, 207.257345)"><g><path d="M 16.148438 0.878906 C 24.921875 0.878906 30.128906 -2.808594 30.128906 -9.011719 C 30.128906 -14.273438 26.503906 -17.492188 18.957031 -18.957031 C 14.273438 -19.832031 12.929688 -20.59375 12.929688 -22.113281 C 12.929688 -23.460938 14.042969 -24.222656 15.679688 -24.222656 C 17.726562 -24.222656 18.898438 -23.167969 19.015625 -21.296875 L 29.664062 -21.296875 C 29.253906 -28.140625 24.457031 -31.828125 15.796875 -31.828125 C 6.960938 -31.828125 2.164062 -28.375 2.164062 -22.113281 C 2.164062 -16.847656 5.558594 -13.808594 13.28125 -12.34375 C 17.375 -11.527344 19.074219 -10.53125 19.074219 -9.066406 C 19.074219 -7.722656 18.019531 -6.902344 16.265625 -6.902344 C 14.21875 -6.902344 12.871094 -8.191406 12.871094 -10.0625 L 1.871094 -10.0625 C 1.871094 -3.453125 7.488281 0.878906 16.148438 0.878906 Z M 16.148438 0.878906 "/></g></g></g><g fill="#8c52ff" fill-opacity="1"><g transform="translate(54.824014, 207.257345)"><g><path d="M 11.292969 -43.9375 L 2.28125 -43.9375 L 2.28125 -33.875 L 6.4375 -33.875 C 8.71875 -33.875 9.769531 -32.820312 9.769531 -30.539062 L 9.769531 -24.457031 C 9.769531 -21.003906 11.058594 -18.605469 13.691406 -17.550781 C 11.058594 -16.441406 9.769531 -14.042969 9.769531 -10.648438 L 9.769531 -4.503906 C 9.769531 -2.164062 8.71875 -1.171875 6.4375 -1.171875 L 2.28125 -1.171875 L 2.28125 8.894531 L 11.292969 8.894531 C 17.433594 8.894531 20.886719 5.441406 20.886719 -0.644531 L 20.886719 -9.066406 C 20.886719 -11.410156 21.941406 -12.460938 24.28125 -12.460938 L 25.683594 -12.460938 L 25.683594 -22.523438 L 24.28125 -22.523438 C 21.941406 -22.523438 20.886719 -23.578125 20.886719 -25.917969 L 20.886719 -34.34375 C 20.886719 -40.484375 17.433594 -43.9375 11.292969 -43.9375 Z M 11.292969 -43.9375 "/></g></g></g><g fill="#8c52ff" fill-opacity="1"><g transform="translate(84.597736, 207.257345)"><g><path d="M 17.609375 0.878906 C 22 0.878906 25.683594 -0.585938 28.433594 -3.101562 L 29.546875 0 L 37.617188 0 L 37.617188 -43.292969 L 26.386719 -43.292969 L 26.386719 -29.371094 C 23.929688 -30.949219 20.945312 -31.828125 17.609375 -31.828125 C 8.308594 -31.828125 1.8125 -25.097656 1.8125 -15.503906 C 1.8125 -5.792969 8.308594 0.878906 17.609375 0.878906 Z M 12.8125 -15.503906 C 12.8125 -19.597656 15.679688 -22.523438 19.832031 -22.523438 C 23.929688 -22.523438 26.796875 -19.597656 26.796875 -15.503906 C 26.796875 -11.351562 23.929688 -8.425781 19.832031 -8.425781 C 15.679688 -8.425781 12.8125 -11.351562 12.8125 -15.503906 Z M 12.8125 -15.503906 "/></g></g></g><g fill="#8c52ff" fill-opacity="1"><g transform="translate(126.128855, 207.257345)"><g><path d="M 5.207031 7.957031 L 15.503906 7.957031 L 15.503906 -46.804688 L 5.207031 -46.804688 Z M 5.207031 7.957031 "/></g></g></g></svg>