<svg xmlns="http://www.w3.org/2000/svg" xmlns:xlink="http://www.w3.org/1999/xlink" width="500" zoomAndPan="magnify" viewBox="0 0 375 374.999991" height="500" preserveAspectRatio="xMidYMid meet" version="1.0"><defs><g/><clipPath id="5994fd3d2d"><path d="M 10.035156 10.035156 L 364.785156 10.035156 L 364.785156 364.785156 L 10.035156 364.785156 Z M 10.035156 10.035156 " clip-rule="nonzero"/></clipPath><clipPath id="8588841e9f"><path d="M 10.035156 10.035156 L 364.785156 10.035156 L 364.785156 364.785156 L 10.035156 364.785156 Z M 10.035156 10.035156 " clip-rule="nonzero"/></clipPath><clipPath id="db7b0a91f8"><path d="M 187.410156 10.035156 C 89.449219 10.035156 10.035156 89.449219 10.035156 187.410156 C 10.035156 285.375 89.449219 364.785156 187.410156 364.785156 C 285.375 364.785156 364.785156 285.375 364.785156 187.410156 C 364.785156 89.449219 285.375 10.035156 187.410156 10.035156 " clip-rule="nonzero"/></clipPath></defs><g clip-path="url(#5994fd3d2d)"><path fill="#ffde59" d="M 187.410156 10.035156 C 89.449219 10.035156 10.035156 89.449219 10.035156 187.410156 C 10.035156 285.375 89.449219 364.785156 187.410156 364.785156 C 285.375 364.785156 364.785156 285.375 364.785156 187.410156 C 364.785156 89.449219 285.375 10.035156 187.410156 10.035156 " fill-opacity="1" fill-rule="nonzero"/></g><g clip-path="url(#8588841e9f)"><g clip-path="url(#db7b0a91f8)"><path stroke-linecap="butt" transform="matrix(0.749628, 0, 0, 0.749628, 10.036865, 10.036861)" fill="none" stroke-linejoin="miter" d="M 236.614932 -0.00227351 C 105.935615 -0.00227351 -0.00227952 105.935621 -0.00227952 236.614938 C -0.00227952 367.299465 105.935615 473.232149 236.614932 473.232149 C 367.299459 473.232149 473.232143 367.299465 473.232143 236.614938 C 473.232143 105.935621 367.299459 -0.00227351 236.614932 -0.00227351 " stroke="#ffde59" stroke-width="6" stroke-opacity="1" stroke-miterlimit="4"/></g></g><g fill="#8c52ff" fill-opacity="1"><g transform="translate(48.917733, 231.612145)"><g><path d="M 36.050781 1.960938 C 55.644531 1.960938 67.273438 -6.269531 67.273438 -20.117188 C 67.273438 -31.871094 59.171875 -39.058594 42.324219 -42.324219 C 31.871094 -44.28125 28.867188 -45.980469 28.867188 -49.375 C 28.867188 -52.378906 31.351562 -54.078125 35.007812 -54.078125 C 39.578125 -54.078125 42.191406 -51.726562 42.453125 -47.546875 L 66.226562 -47.546875 C 65.3125 -62.832031 54.601562 -71.058594 35.269531 -71.058594 C 15.542969 -71.058594 4.832031 -63.351562 4.832031 -49.375 C 4.832031 -37.621094 12.410156 -30.828125 29.652344 -27.5625 C 38.796875 -25.734375 42.582031 -23.511719 42.582031 -20.246094 C 42.582031 -17.242188 40.234375 -15.414062 36.3125 -15.414062 C 31.742188 -15.414062 28.738281 -18.289062 28.738281 -22.46875 L 4.179688 -22.46875 C 4.179688 -7.707031 16.71875 1.960938 36.050781 1.960938 Z M 36.050781 1.960938 "/></g></g></g><g fill="#8c52ff" fill-opacity="1"><g transform="translate(120.617394, 231.612145)"><g><path d="M 25.210938 -98.097656 L 5.09375 -98.097656 L 5.09375 -75.632812 L 14.367188 -75.632812 C 19.464844 -75.632812 21.8125 -73.28125 21.8125 -68.1875 L 21.8125 -54.601562 C 21.8125 -46.894531 24.6875 -41.539062 30.566406 -39.1875 C 24.6875 -36.707031 21.8125 -31.351562 21.8125 -23.773438 L 21.8125 -10.058594 C 21.8125 -4.832031 19.464844 -2.613281 14.367188 -2.613281 L 5.09375 -2.613281 L 5.09375 19.855469 L 25.210938 19.855469 C 38.925781 19.855469 46.632812 12.148438 46.632812 -1.4375 L 46.632812 -20.246094 C 46.632812 -25.472656 48.984375 -27.824219 54.210938 -27.824219 L 57.34375 -27.824219 L 57.34375 -50.289062 L 54.210938 -50.289062 C 48.984375 -50.289062 46.632812 -52.640625 46.632812 -57.867188 L 46.632812 -76.675781 C 46.632812 -90.390625 38.925781 -98.097656 25.210938 -98.097656 Z M 25.210938 -98.097656 "/></g></g></g><g fill="#8c52ff" fill-opacity="1"><g transform="translate(187.093046, 231.612145)"><g><path d="M 39.316406 1.960938 C 49.113281 1.960938 57.34375 -1.304688 63.484375 -6.921875 L 65.964844 0 L 83.992188 0 L 83.992188 -96.664062 L 58.910156 -96.664062 L 58.910156 -65.574219 C 53.425781 -69.101562 46.765625 -71.058594 39.316406 -71.058594 C 18.546875 -71.058594 4.050781 -56.039062 4.050781 -34.617188 C 4.050781 -12.933594 18.546875 1.960938 39.316406 1.960938 Z M 28.605469 -34.617188 C 28.605469 -43.757812 35.007812 -50.289062 44.28125 -50.289062 C 53.425781 -50.289062 59.828125 -43.757812 59.828125 -34.617188 C 59.828125 -25.339844 53.425781 -18.808594 44.28125 -18.808594 C 35.007812 -18.808594 28.605469 -25.339844 28.605469 -34.617188 Z M 28.605469 -34.617188 "/></g></g></g><g fill="#8c52ff" fill-opacity="1"><g transform="translate(279.819385, 231.612145)"><g><path d="M 11.625 17.765625 L 34.617188 17.765625 L 34.617188 -104.5 L 11.625 -104.5 Z M 11.625 17.765625 "/></g></g></g></svg>